<svg xmlns="http://www.w3.org/2000/svg" version="1.1" xmlns:xlink="http://www.w3.org/1999/xlink" xmlns:svgjs="http://svgjs.dev/svgjs" width="1500" height="1500" viewBox="0 0 1500 1500"><rect width="1500" height="1500" fill="#755bb4"></rect><g transform="matrix(0.6666666666666666,0,0,0.6666666666666666,249.39393939393932,617.7130681188946)"><svg viewBox="0 0 396 105" data-background-color="#755bb4" preserveAspectRatio="xMidYMid meet" height="397" width="1500" xmlns="http://www.w3.org/2000/svg" xmlns:xlink="http://www.w3.org/1999/xlink"><g id="tight-bounds" transform="matrix(1,0,0,1,0.24000000000003752,-0.01840863658918579)"><svg viewBox="0 0 395.5199999999999 105.03681727317839" height="105.03681727317839" width="395.5199999999999"><g><svg viewBox="0 0 558.637187735965 148.35525943119137" height="105.03681727317839" width="395.5199999999999"><g transform="matrix(1,0,0,1,0,20.503512699969292)"><svg viewBox="0 0 395.52 107.34823403125279" height="107.34823403125279" width="395.52"><g id="textblocktransform"><svg viewBox="0 0 395.52 107.34823403125279" height="107.34823403125279" width="395.52" id="textblock"><g><svg viewBox="0 0 395.52 62.53040675364543" height="62.53040675364543" width="395.52"><g transform="matrix(1,0,0,1,0,0)"><svg width="395.52" viewBox="0.29 -36.45 286.28 45.260000000000005" height="62.53040675364543" data-palette-color="#efedf0"><path d="M10.4 0.32L10.4 0.32Q7.5 0.32 5.76-0.73L5.76-0.73Q3.83-1.83 3.83-3.98L3.83-3.98 3.83-15.43 4.59-15.43Q5.81-15.43 5.81-16.24L5.81-16.24Q5.81-16.33 5.76-16.53L5.76-16.53 1.71-16.53Q0.29-18.55 0.29-21.53 0.29-24.51 1.71-26.68L1.71-26.68 3.83-26.68Q4.42-30.74 7.01-32.89 9.59-35.03 13.89-35.03L13.89-35.03Q16.97-35.03 19.24-34.16 21.51-33.28 22.56-32.15L22.56-32.15Q22.8-31.35 22.8-30.2L22.8-30.2 22.8-29.74Q22.8-27.22 22.07-25.32L22.07-25.32Q20.39-24.66 17.36-24.66L17.36-24.66Q16.11-24.66 14.64-24.83 13.16-25 12.45-25.17L12.45-25.17Q12.28-25 12.28-24.68L12.28-24.68Q12.28-24.27 13.45-23.91 14.62-23.56 17.25-23.56 19.87-23.56 21.56-23.85L21.56-23.85Q21.73-23.46 21.89-22.38 22.05-21.29 22.05-20.24L22.05-20.24Q22.05-17.99 21.22-16.53L21.22-16.53 16.7-16.53 16.7-1.37Q14.04 0.32 10.4 0.32ZM37.2-10.64L37.2-10.64Q37.5-10.64 37.84-10.89L37.84-10.89Q37.6-11.69 37.6-13.4L37.6-13.4 37.6-25.46Q40.18-27.03 43.82-27.03L43.82-27.03Q45.87-27.03 47.42-26.48 48.97-25.93 49.8-25.02L49.8-25.02 49.8-12.3Q49.8-8.67 51.56-7.57L51.56-7.57Q51.58-7.45 51.58-7.1L51.58-7.1 51.58-6.67Q51.58-3.1 49.7-1.27L49.7-1.27Q48 0.44 44.99 0.44L44.99 0.44Q43.11 0.44 41.59-0.42 40.06-1.27 39.3-2.91L39.3-2.91Q38.47-2.91 38.47-2.1L38.47-2.1Q38.47-1.54 39.04-0.98L39.04-0.98Q38.25-0.34 37.16 0.05 36.06 0.44 33.92 0.44 31.78 0.44 29.76-0.44L29.76-0.44Q27.24-1.51 25.9-3.74L25.9-3.74Q24.27-6.37 24.27-10.42L24.27-10.42 24.27-16.55Q23.02-18.73 23.02-21.34L23.02-21.34Q23.02-22.68 23.36-24.12 23.7-25.56 24.46-26.68L24.46-26.68 29.83-26.68Q32.86-26.68 34.58-25.26 36.3-23.83 36.3-20.92L36.3-20.92 36.3-13.01Q36.3-10.64 37.2-10.64ZM78.56-17.09L78.49-12.08Q78.49-10.33 78.88-9.25 79.27-8.18 80.24-7.57L80.24-7.57Q80.27-7.45 80.27-7.1L80.27-7.1 80.27-6.67Q80.27-3.3 78.33-1.43 76.39 0.44 73.32 0.44 70.26 0.44 68.35-1.29L68.35-1.29Q66.13-3.27 66.13-7.3L66.13-7.3Q66.13-9.01 66.29-10.31 66.45-11.62 66.51-12.18 66.57-12.74 66.65-13.23 66.72-13.72 66.72-14.67 66.72-15.63 66.46-16.04 66.21-16.46 65.75-16.46 65.3-16.46 64.96-16.26L64.96-16.26 65.28-12.28Q64.84-9.81 64.84-7.06 64.84-4.3 66.08-2.03L66.08-2.03Q63.69 0.44 59.37 0.44L59.37 0.44Q56.9 0.44 55.1-0.85L55.1-0.85Q53-2.32 53-4.74L53-4.74 53-16.55Q51.56-18.58 51.56-21.55 51.56-24.51 53-26.68L53-26.68 57.34-26.68Q59.08-26.68 60.3-25.39L60.3-25.39Q59.22-24.39 59.22-23.73L59.22-23.73Q59.22-22.97 60.08-22.97L60.08-22.97Q61.15-24.83 63.36-26.05 65.57-27.27 68.38-27.27L68.38-27.27Q72.6-27.27 75.24-25.2L75.24-25.2Q78.56-22.58 78.56-17.09L78.56-17.09ZM107.12-17.09L107.05-12.08Q107.05-10.33 107.44-9.25 107.83-8.18 108.81-7.57L108.81-7.57Q108.83-7.45 108.83-7.1L108.83-7.1 108.83-6.67Q108.83-3.3 106.89-1.43 104.95 0.44 101.88 0.44 98.82 0.44 96.92-1.29L96.92-1.29Q94.69-3.27 94.69-7.3L94.69-7.3Q94.69-9.01 94.85-10.31 95.01-11.62 95.07-12.18 95.13-12.74 95.21-13.23 95.28-13.72 95.28-14.67 95.28-15.63 95.02-16.04 94.77-16.46 94.32-16.46 93.86-16.46 93.52-16.26L93.52-16.26 93.84-12.28Q93.4-9.81 93.4-7.06 93.4-4.3 94.65-2.03L94.65-2.03Q92.25 0.44 87.93 0.44L87.93 0.44Q85.47 0.44 83.66-0.85L83.66-0.85Q81.56-2.32 81.56-4.74L81.56-4.74 81.56-16.55Q80.12-18.58 80.12-21.55 80.12-24.51 81.56-26.68L81.56-26.68 85.91-26.68Q87.64-26.68 88.86-25.39L88.86-25.39Q87.79-24.39 87.79-23.73L87.79-23.73Q87.79-22.97 88.64-22.97L88.64-22.97Q89.71-24.83 91.92-26.05 94.13-27.27 96.94-27.27L96.94-27.27Q101.16-27.27 103.8-25.2L103.8-25.2Q107.12-22.58 107.12-17.09L107.12-17.09ZM121.33-12.33L121.33-12.33 121.33-11.77Q121.33-11.38 121.35-11.21L121.35-11.21Q121.6-11.08 121.89-11.08L121.89-11.08Q122.6-11.08 122.6-12.16L122.6-12.16Q122.6-15.75 123-19.62 123.4-23.49 123.87-25.59L123.87-25.59Q125.84-27.03 129.14-27.03 132.44-27.03 134.23-25.74 136.03-24.46 136.03-22.66L136.03-22.66Q136.03-21.9 135.12-16.41L135.12-16.41Q134.12-10.82 132.56-4.64L132.56-4.64Q132.24-3.39 131.42-1.15 130.61 1.1 129.68 2.59L129.68 2.59Q126.77 7.2 122.5 8.3L122.5 8.3Q120.5 8.81 118.47 8.81L118.47 8.81Q114.54 8.81 112.39 6.86L112.39 6.86Q110.41 5.1 110.41 2.5 110.41-0.1 111.95-2.39L111.95-2.39Q112.32-2.49 113.3-2.49 114.27-2.49 115.74-2.25L115.74-2.25Q119.79-1.49 119.86-1.49L119.86-1.49Q120.03-1.46 120.24-1.43 120.45-1.39 120.79-1.39 121.13-1.39 121.38-1.59 121.62-1.78 121.62-2.37L121.62-2.37 115.86-3.47Q113.74-4.35 112.17-7.15L112.17-7.15Q110.24-10.62 109.56-16.55L109.56-16.55Q107.95-18.65 107.95-21.58 107.95-24.51 109.41-26.68L109.41-26.68 115.69-26.68Q118.84-26.68 120.4-24.88L120.4-24.88Q121.55-23.54 121.87-20.95L121.87-20.95Q121.33-16.7 121.33-12.33ZM187.46-16.94L187.36-12.08Q187.36-10.3 187.75-9.18 188.14-8.06 189.12-7.45L189.12-7.45Q189.15-7.32 189.15-7.03L189.15-7.03 189.15-6.67Q189.15-3.32 187.19-1.44 185.24 0.44 182.15 0.44 179.06 0.44 177.18-1.25L177.18-1.25Q174.96-3.2 174.96-7.23L174.96-7.23 174.96-14.94Q174.96-16.58 173.89-16.58L173.89-16.58Q173.47-16.58 173.23-16.38L173.23-16.38 173.67-12.74 173.67-7.23Q173.67-3.91 174.77-2.2L174.77-2.2Q173.59-0.95 171.85-0.26 170.1 0.44 168.3 0.44L168.3 0.44Q165.37 0.44 163.75-0.98L163.75-0.98Q161.8-2.69 161.8-6.37L161.8-6.37 161.8-14.94Q161.8-16.58 160.73-16.58L160.73-16.58Q160.31-16.58 160.07-16.38L160.07-16.38 160.51-12.74 160.51-6.27Q160.51-3.54 161.24-2.05L161.24-2.05Q158.85 0.42 154.53 0.42L154.53 0.42Q151.96 0.42 150.2-0.88L150.2-0.88Q148.18-2.37 148.18-4.88L148.18-4.88 148.18-16.55Q146.74-18.58 146.74-21.55 146.74-24.51 148.18-26.68L148.18-26.68 154.06-26.68Q155.8-26.68 157.02-25.39L157.02-25.39Q155.94-24.39 155.94-23.73L155.94-23.73Q155.94-22.97 156.8-22.97L156.8-22.97Q157.87-24.83 159.75-25.93L159.75-25.93Q161.95-27.17 164.9-27.17L164.9-27.17Q167.15-27.17 168.84-26.22 170.54-25.27 171.37-24.02L171.37-24.02Q172.52-25.59 174.36-26.38 176.21-27.17 178.21-27.17L178.21-27.17Q182.63-27.17 185.07-24.44L185.07-24.44Q187.46-21.7 187.46-16.94L187.46-16.94ZM202.57-13.6L202.57-13.6 202.57-9.33Q202.74-9.16 203.13-9.16 203.52-9.16 203.69-9.42 203.86-9.69 203.86-10.35L203.86-10.35 203.86-13.84Q203.86-16.19 203.67-16.96 203.47-17.72 202.94-17.72L202.94-17.72Q202.59-17.72 202.35-17.48L202.35-17.48Q202.57-15.06 202.57-13.6ZM193.44-2.78L193.44-2.78Q189.44-6.64 189.44-13.24 189.44-19.85 193.21-23.67 196.98-27.49 203.11-27.49 209.24-27.49 213.02-23.51L213.02-23.51Q216.78-19.53 216.78-13.15 216.78-6.76 213.15-3 209.53 0.76 203.3 0.76 197.08 0.76 193.44-2.78ZM229.67-11.94L229.67-11.94 229.67-11.35Q229.67-10.94 229.69-10.77L229.69-10.77Q229.98-10.64 230.25-10.64L230.25-10.64Q230.96-10.64 230.96-11.6L230.96-11.6Q230.96-14.09 231.55-20.97L231.55-20.97Q231.86-24.71 231.94-25.37L231.94-25.37Q234.23-26.9 237.44-26.9 240.65-26.9 242.41-25.2L242.41-25.2Q243.97-23.63 243.97-21.14L243.97-21.14Q243.97-19.46 243.51-17.65L243.51-17.65Q241.24-8.89 238.99-3.86L238.99-3.86Q237.8-1.25 235.36-0.29L235.36-0.29Q233.55 0.44 230.2 0.44L230.2 0.44Q228.42 0.44 226.68 0.15 224.93-0.15 224-0.54L224-0.54Q220.46-7.76 218.17-16.53L218.17-16.53Q217.41-17.29 216.87-18.65 216.34-20.02 216.34-21.48L216.34-21.48Q216.34-24.51 217.8-26.68L217.8-26.68Q217.8-26.68 223.88-26.68L223.88-26.68Q227.08-26.68 228.64-24.88L228.64-24.88Q229.81-23.51 230.16-20.9L230.16-20.9Q229.67-16.36 229.67-11.94ZM257.84-21.97L257.84-21.97 257.84-12.3Q257.84-8.67 259.6-7.57L259.6-7.57Q259.62-7.45 259.62-7.1L259.62-7.1 259.62-6.67Q259.62-3.08 257.67-1.27L257.67-1.27Q255.86 0.44 252.85 0.44 249.83 0.44 247.88-1.27L247.88-1.27Q245.41-3.44 245.41-7.62L245.41-7.62 245.41-23.49Q245.85-23.8 246.36-24 246.88-24.19 247.44-24.49L247.44-24.49Q246.39-25.02 245.53-26.35 244.68-27.69 244.68-29.47L244.68-29.47Q244.68-32.54 246.71-34.5 248.73-36.45 251.67-36.45 254.62-36.45 256.61-34.46 258.6-32.47 258.6-29.47L258.6-29.47Q258.6-27.05 257.08-25.23 255.57-23.41 253.4-22.95L253.4-22.95Q253.4-22.02 254.1-22.02L254.1-22.02Q255.35-22.02 256.64-23L256.64-23Q257.62-22.24 257.84-21.97ZM274.58 0.76L274.58 0.76Q267.82 0.76 263.92-3L263.92-3Q259.91-6.79 259.91-13.37 259.91-19.95 264.04-23.8L264.04-23.8Q267.85-27.39 273.68-27.39 279.52-27.39 283.04-24.18 286.57-20.97 286.57-16.28L286.57-16.28Q286.57-12.11 283.67-9.99L283.67-9.99Q280.98-7.98 276.34-7.98L276.34-7.98Q272.88-7.98 270.48-9.42L270.48-9.42Q270.29-9.28 270.29-8.89L270.29-8.89Q270.29-8.15 272.22-7.54L272.22-7.54Q274.14-6.88 276.6-6.88 279.05-6.88 281.07-7.51 283.08-8.13 284.3-8.98L284.3-8.98Q284.89-8.47 285.24-7.09 285.6-5.71 285.6-4.58 285.6-3.44 285.38-2.56L285.38-2.56Q283.47-0.95 281.47-0.27L281.47-0.27Q278.64 0.76 274.58 0.76ZM274.27-15.77L274.27-15.77Q275.49-15.77 275.49-16.7L275.49-16.7Q275.49-17.58 274.19-17.58 272.9-17.58 272.7-16.19L272.7-16.19Q273.39-15.77 274.27-15.77Z" opacity="1" transform="matrix(1,0,0,1,0,0)" fill="#efedf0" class="wordmark-text-0" data-fill-palette-color="primary" id="text-0"></path></svg></g></svg></g><g transform="matrix(1,0,0,1,163.310208,77.29233505841903)"><svg viewBox="0 0 232.209792 30.055898972833763" height="30.055898972833763" width="232.209792"><g transform="matrix(1,0,0,1,0,0)"><svg width="232.209792" viewBox="3.69 -37.55 293.85 38.04" height="30.055898972833763" data-palette-color="#35185a"><path d="M38.67-27.29L38.67-23.24Q38.67-21.07 38.13-19.36 37.6-17.65 36.68-16.35 35.77-15.04 34.57-14.11 33.37-13.18 32.07-12.59 30.76-11.99 29.43-11.72 28.1-11.45 26.93-11.45L26.93-11.45 40.19 0 30.37 0 17.14-11.45 12.57-11.45 12.57-17.8 26.93-17.8Q28.13-17.9 29.11-18.3 30.1-18.7 30.82-19.38 31.54-20.07 31.93-21.03 32.32-22 32.32-23.24L32.32-23.24 32.32-27.25Q32.32-27.78 32.19-28.06 32.06-28.34 31.85-28.48 31.64-28.61 31.41-28.64 31.18-28.66 30.98-28.66L30.98-28.66 10.03-28.66 10.03 0 3.69 0 3.69-31.81Q3.69-32.47 3.93-33.06 4.17-33.64 4.6-34.08 5.03-34.52 5.62-34.77 6.2-35.01 6.88-35.01L6.88-35.01 30.98-35.01Q33.11-35.01 34.57-34.24 36.04-33.47 36.95-32.31 37.87-31.15 38.27-29.81 38.67-28.47 38.67-27.29L38.67-27.29ZM72.46-17.65L72.46-17.65Q72.46-16.33 71.99-14.81 71.53-13.28 70.49-11.98 69.46-10.67 67.78-9.79 66.11-8.91 63.72-8.91L63.72-8.91 52.27-8.91 52.27-14.94 63.72-14.94Q65.01-14.94 65.72-15.73 66.43-16.53 66.43-17.7L66.43-17.7Q66.43-18.95 65.63-19.65 64.84-20.36 63.72-20.36L63.72-20.36 52.27-20.36Q50.97-20.36 50.27-19.57 49.56-18.77 49.56-17.6L49.56-17.6 49.56-8.74Q49.56-7.47 50.35-6.76 51.14-6.05 52.32-6.05L52.32-6.05 63.72-6.05 63.72 0 52.27 0Q50.95 0 49.42-0.46 47.9-0.93 46.59-1.97 45.29-3 44.41-4.68 43.53-6.35 43.53-8.74L43.53-8.74 43.53-17.65Q43.53-18.97 43.99-20.5 44.46-22.02 45.49-23.33 46.53-24.63 48.2-25.51 49.88-26.39 52.27-26.39L52.27-26.39 63.72-26.39Q65.04-26.39 66.56-25.93 68.09-25.46 69.39-24.43 70.7-23.39 71.58-21.72 72.46-20.04 72.46-17.65ZM103.78-17.65L103.78-8.74Q103.78-7.42 103.32-5.9 102.85-4.37 101.81-3.06 100.78-1.76 99.1-0.88 97.43 0 95.04 0L95.04 0 83.59 0Q82.27 0 80.74-0.46 79.22-0.93 77.91-1.97 76.61-3 75.73-4.68 74.85-6.35 74.85-8.74L74.85-8.74Q74.85-10.06 75.31-11.6 75.78-13.13 76.81-14.44 77.85-15.75 79.52-16.63 81.2-17.5 83.59-17.5L83.59-17.5 95.04-17.5 95.04-11.45 83.59-11.45Q82.29-11.45 81.59-10.66 80.88-9.86 80.88-8.69L80.88-8.69Q80.88-7.45 81.7-6.75 82.51-6.05 83.64-6.05L83.64-6.05 95.04-6.05Q96.33-6.05 97.04-6.84 97.75-7.62 97.75-8.79L97.75-8.79 97.75-17.65Q97.75-18.9 96.98-19.63 96.21-20.36 95.04-20.36L95.04-20.36 81.1-20.36 81.1-26.39 95.04-26.39Q96.36-26.39 97.88-25.93 99.41-25.46 100.72-24.43 102.02-23.39 102.9-21.72 103.78-20.04 103.78-17.65L103.78-17.65ZM120.79-6.35L120.79 0 117.96 0Q116.59 0 115.04-0.46 113.49-0.93 112.15-1.99 110.81-3.05 109.93-4.75 109.05-6.45 109.05-8.91L109.05-8.91 109.05-37.55 115.4-37.55 115.4-8.91Q115.4-7.74 116.13-7.04 116.86-6.35 117.96-6.35L117.96-6.35 120.79-6.35ZM182.26-32.3L182.26 0 175.87 0 175.87-20.85 164.61-1.05Q164.2-0.29 163.45 0.1 162.71 0.49 161.85 0.49L161.85 0.49Q161.02 0.49 160.3 0.1 159.58-0.29 159.17-1.05L159.17-1.05 147.86-20.85 147.86 0 141.52 0 141.52-32.3Q141.52-33.4 142.16-34.25 142.81-35.11 143.86-35.4L143.86-35.4Q144.37-35.52 144.88-35.49 145.4-35.45 145.87-35.27 146.35-35.08 146.74-34.75 147.13-34.42 147.4-33.96L147.4-33.96 161.85-8.84 176.31-33.96Q176.87-34.89 177.86-35.28 178.84-35.67 179.92-35.4L179.92-35.4Q180.94-35.11 181.6-34.25 182.26-33.4 182.26-32.3L182.26-32.3ZM217.47-17.5L217.47-8.91Q217.47-7.28 217.05-5.97 216.64-4.66 215.95-3.67 215.27-2.69 214.36-1.99 213.46-1.29 212.47-0.85 211.48-0.42 210.47-0.21 209.46 0 208.55 0L208.55 0 197.1 0Q195.79 0 194.22-0.46 192.66-0.93 191.33-1.99 190-3.05 189.11-4.75 188.22-6.45 188.22-8.91L188.22-8.91 188.22-17.5Q188.22-19.95 189.11-21.64 190-23.34 191.33-24.4 192.66-25.46 194.22-25.93 195.79-26.39 197.1-26.39L197.1-26.39 208.55-26.39Q211-26.39 212.7-25.51 214.41-24.63 215.46-23.3 216.51-21.97 216.99-20.41 217.47-18.85 217.47-17.5L217.47-17.5ZM211.12-8.91L211.12-17.46Q211.12-18.77 210.46-19.41 209.8-20.04 208.55-20.04L208.55-20.04 197.15-20.04Q195.88-20.04 195.22-19.4 194.57-18.75 194.57-17.5L194.57-17.5 194.57-8.91Q194.57-7.67 195.22-7.01 195.88-6.35 197.15-6.35L197.15-6.35 208.55-6.35Q209.85-6.35 210.48-7.01 211.12-7.67 211.12-8.91L211.12-8.91ZM247.61-26.39L254.35-26.39Q253.28-23.05 251.84-19.8 250.4-16.55 248.53-13.61 246.66-10.67 244.36-8.17 242.05-5.66 239.25-3.85 236.46-2.03 233.17-0.99 229.89 0.05 226.06 0.05L226.06 0.05Q225.4 0.05 224.81-0.2 224.23-0.44 223.79-0.87 223.35-1.29 223.1-1.87 222.86-2.44 222.86-3.1L222.86-3.1 222.86-26.39 229.21-26.39 229.21-6.54Q231.53-6.54 233.66-7.54 235.8-8.54 237.7-10.19 239.61-11.84 241.23-13.94 242.85-16.04 244.12-18.25 245.39-20.46 246.28-22.58 247.17-24.71 247.61-26.39L247.61-26.39ZM263.07-37.55L263.07-31.81 256.72-31.81 256.72-37.55 263.07-37.55ZM263.07-26.39L263.07 0 256.72 0 256.72-26.39 263.07-26.39ZM297.54-17.65L297.54-17.65Q297.54-16.33 297.07-14.81 296.61-13.28 295.57-11.98 294.53-10.67 292.86-9.79 291.19-8.91 288.8-8.91L288.8-8.91 277.35-8.91 277.35-14.94 288.8-14.94Q290.09-14.94 290.8-15.73 291.51-16.53 291.51-17.7L291.51-17.7Q291.51-18.95 290.71-19.65 289.92-20.36 288.8-20.36L288.8-20.36 277.35-20.36Q276.05-20.36 275.34-19.57 274.64-18.77 274.64-17.6L274.64-17.6 274.64-8.74Q274.64-7.47 275.43-6.76 276.22-6.05 277.39-6.05L277.39-6.05 288.8-6.05 288.8 0 277.35 0Q276.03 0 274.5-0.46 272.98-0.93 271.67-1.97 270.36-3 269.48-4.68 268.61-6.35 268.61-8.74L268.61-8.74 268.61-17.65Q268.61-18.97 269.07-20.5 269.53-22.02 270.57-23.33 271.61-24.63 273.28-25.51 274.95-26.39 277.35-26.39L277.35-26.39 288.8-26.39Q290.11-26.39 291.64-25.93 293.17-25.46 294.47-24.43 295.78-23.39 296.66-21.72 297.54-20.04 297.54-17.65Z" opacity="1" transform="matrix(1,0,0,1,0,0)" fill="#35185a" class="slogan-text-1" data-fill-palette-color="secondary" id="text-1"></path></svg></g></svg></g></svg></g></svg></g><g transform="matrix(1,0,0,1,410.2819283047736,0)"><svg viewBox="0 0 148.35525943119137 148.35525943119137" height="148.35525943119137" width="148.35525943119137"><g data-palette-color="#35185a"><rect width="40.55043757785898" height="148.35525943119137" fill="#35185a" stroke="transparent" data-fill-palette-color="accent" x="0" fill-opacity="1"></rect><rect width="40.55043757785898" height="148.35525943119137" fill="#35185a" stroke="transparent" data-fill-palette-color="accent" x="49.45175314373046" fill-opacity="0.75"></rect><rect width="40.55043757785898" height="148.35525943119137" fill="#35185a" stroke="transparent" data-fill-palette-color="accent" x="98.90350628746091" fill-opacity="0.5"></rect></g></svg></g></svg></g><defs></defs></svg><rect width="395.5199999999999" height="105.03681727317839" fill="none" stroke="none" visibility="hidden"></rect></g></svg></g></svg>